<?xml version="1.0" encoding="utf-8"?>
<!-- Generator: Adobe Illustrator 25.1.0, SVG Export Plug-In . SVG Version: 6.00 Build 0)  -->
<svg version="1.1" id="Layer_1" xmlns="http://www.w3.org/2000/svg" xmlns:xlink="http://www.w3.org/1999/xlink" x="0px" y="0px"
	 viewBox="0 0 1280 1280" style="enable-background:new 0 0 1280 1280;" xml:space="preserve">
<style type="text/css">
	.st0{fill:#1F2021;}
	.st1{font-family:'Poppins-SemiBold';}
	.st2{font-size:60.0785px;}
	.st3{letter-spacing:4.03;}
	.st4{fill:#C0C6C9;}
	.st5{font-family:'Poppins-Medium';}
	.st6{font-size:20.2658px;}
	.st7{opacity:0.3;fill:#CCD0D6;}
	.st8{opacity:0.8;fill:#CCD0D6;}
	.st9{fill:#FFFFFF;}
	.st10{font-size:30.3987px;}
</style>
<g>
	<text transform="matrix(0.9932 0 0 1 138.2113 266.2803)"><tspan x="0" y="0" class="st0 st1 st2 st3">FEBRUARY</tspan><tspan x="341" y="0" class="st4 st1 st2 st3"> / 02</tspan></text>
	<g>
		<g>
			<text transform="matrix(0.9932 0 0 1 534.5033 516.9951)" class="st0 st5 st6">2</text>
			<text transform="matrix(0.9932 0 0 1 230.2606 516.9951)" class="st4 st5 st6">27</text>
			<text transform="matrix(0.9932 0 0 1 392.5922 516.9951)" class="st0 st5 st6">1</text>
			<text transform="matrix(0.9932 0 0 1 680.6185 516.9951)" class="st0 st5 st6">3</text>
			<text transform="matrix(0.9932 0 0 1 826.0121 516.9951)" class="st0 st5 st6">4</text>
			<text transform="matrix(0.9932 0 0 1 972.642 516.9951)" class="st0 st5 st6">5</text>
			<text transform="matrix(0.9932 0 0 1 1119.0502 516.9951)" class="st0 st5 st6">6</text>
			<text transform="matrix(0.9932 0 0 1 241.8749 625.2217)" class="st0 st5 st6">7</text>
			<text transform="matrix(0.9932 0 0 1 533.3358 625.2217)" class="st0 st5 st6">9</text>
			<text transform="matrix(0.9932 0 0 1 672.6273 625.2217)" class="st0 st5 st6">10</text>
			<text transform="matrix(0.9932 0 0 1 824.9457 625.2217)" class="st0 st5 st6">11</text>
			<text transform="matrix(0.9932 0 0 1 966.8451 625.2217)" class="st0 st5 st6">12</text>
			<text transform="matrix(0.9932 0 0 1 1112.972 625.2217)" class="st0 st5 st6">13</text>
			<text transform="matrix(0.9932 0 0 1 386.7953 625.2217)" class="st0 st5 st6">8</text>
			<text transform="matrix(0.9932 0 0 1 233.079 733.4365)" class="st0 st5 st6">14</text>
			<text transform="matrix(0.9932 0 0 1 526.1498 733.4365)" class="st0 st5 st6">16</text>
			<text transform="matrix(0.9932 0 0 1 674.2572 733.4365)" class="st0 st5 st6">17</text>
			<text transform="matrix(0.9932 0 0 1 819.1488 733.4365)" class="st0 st5 st6">18</text>
			<text transform="matrix(0.9932 0 0 1 965.6781 733.4365)" class="st0 st5 st6">19</text>
			<text transform="matrix(0.9932 0 0 1 1107.4564 733.4365)" class="st0 st5 st6">20</text>
			<text transform="matrix(0.9932 0 0 1 379.7299 733.4365)" class="st0 st5 st6">15</text>
			<text transform="matrix(0.9932 0 0 1 234.4877 841.6514)" class="st0 st5 st6">21</text>
			<text transform="matrix(0.9932 0 0 1 522.5468 841.6514)" class="st0 st5 st6">23</text>
			<text transform="matrix(0.9932 0 0 1 667.9369 841.6514)" class="st0 st5 st6">24</text>
			<text transform="matrix(0.9932 0 0 1 814.559 841.6514)" class="st0 st5 st6">25</text>
			<text transform="matrix(0.9932 0 0 1 960.9672 841.6514)" class="st0 st5 st6">26</text>
			<text transform="matrix(0.9932 0 0 1 1109.0863 841.6514)" class="st0 st5 st6">27</text>
			<text transform="matrix(0.9932 0 0 1 376.4086 841.6514)" class="st0 st5 st6">22</text>
			<text transform="matrix(0.9932 0 0 1 228.6908 949.8389)" class="st0 st5 st6">28</text>
			<text transform="matrix(0.9932 0 0 1 534.5033 949.8389)" class="st4 st5 st6">2</text>
			<text transform="matrix(0.9932 0 0 1 680.6185 949.8389)" class="st4 st5 st6">3</text>
			<text transform="matrix(0.9932 0 0 1 826.0121 949.8389)" class="st4 st5 st6">4</text>
			<text transform="matrix(0.9932 0 0 1 972.6498 949.8389)" class="st4 st5 st6">5</text>
			<text transform="matrix(0.9932 0 0 1 1119.0502 949.8389)" class="st4 st5 st6">6</text>
			<text transform="matrix(0.9932 0 0 1 392.5922 949.8389)" class="st4 st5 st6">1</text>
			<text transform="matrix(0.9932 0 0 1 241.8749 1058.0342)" class="st4 st5 st6">7</text>
			<text transform="matrix(0.9932 0 0 1 533.3358 1058.0342)" class="st4 st5 st6">9</text>
			<text transform="matrix(0.9932 0 0 1 672.6273 1058.0342)" class="st4 st5 st6">10</text>
			<text transform="matrix(0.9932 0 0 1 824.9457 1058.0342)" class="st4 st5 st6">11</text>
			<text transform="matrix(0.9932 0 0 1 966.8529 1058.0342)" class="st4 st5 st6">12</text>
			<text transform="matrix(0.9932 0 0 1 1112.972 1058.0342)" class="st4 st5 st6">13</text>
			<text transform="matrix(0.9932 0 0 1 386.7953 1058.0342)" class="st4 st5 st6">8</text>
		</g>
		<path class="st7" d="M265.92,529.58H135.27v-92.27h130.65V529.58z M136.21,528.63h128.75v-90.36H136.21V528.63z"/>
		<path class="st8" d="M412.38,529.58H281.74v-92.27h130.65V529.58z M282.68,528.63h128.75v-90.36H282.68V528.63z"/>
		<path class="st8" d="M558.85,529.58H428.2v-92.27h130.65V529.58z M429.15,528.63h128.75v-90.36H429.15V528.63z"/>
		<path class="st8" d="M705.32,529.58H574.68v-92.27h130.64V529.58z M575.63,528.63h128.75v-90.36H575.63V528.63z"/>
		<path class="st8" d="M851.8,529.58H721.15v-92.27H851.8V529.58z M722.09,528.63h128.75v-90.36H722.09V528.63z"/>
		<path class="st8" d="M1144.73,529.58h-130.64v-92.27h130.64V529.58z M1015.04,528.63h128.75v-90.36h-128.75V528.63z"/>
		<path class="st8" d="M998.26,529.58H867.62v-92.27h130.64V529.58z M868.57,528.63h128.75v-90.36H868.57V528.63z"/>
		<path class="st8" d="M265.91,637.79H135.27v-92.27h130.64V637.79z M136.22,636.84h128.75v-90.37H136.22V636.84z"/>
		<path class="st8" d="M412.38,637.79H281.74v-92.27h130.64V637.79z M282.68,636.84h128.75v-90.37H282.68V636.84z"/>
		<path class="st8" d="M558.85,637.79H428.2v-92.27h130.65V637.79z M429.15,636.84h128.75v-90.37H429.15V636.84z"/>
		<path class="st8" d="M705.32,637.79H574.68v-92.27h130.64V637.79z M575.63,636.84h128.75v-90.37H575.63V636.84z"/>
		<path class="st8" d="M851.8,637.79H721.15v-92.27H851.8V637.79z M722.09,636.84h128.75v-90.37H722.09V636.84z"/>
		<path class="st8" d="M1144.73,637.79h-130.64v-92.27h130.64V637.79z M1015.04,636.84h128.75v-90.37h-128.75V636.84z"/>
		<path class="st8" d="M998.26,637.79H867.62v-92.27h130.64V637.79z M868.57,636.84h128.75v-90.37H868.57V636.84z"/>
		<path class="st8" d="M265.91,746H135.27v-92.27h130.64V746z M136.22,745.04h128.75v-90.37H136.22V745.04z"/>
		<path class="st8" d="M412.38,746H281.74v-92.27h130.64V746z M282.68,745.04h128.75v-90.37H282.68V745.04z"/>
		<path class="st8" d="M558.85,746H428.2v-92.27h130.65V746z M429.15,745.04h128.75v-90.37H429.15V745.04z"/>
		<path class="st8" d="M705.32,746H574.68v-92.27h130.64V746z M575.63,745.04h128.75v-90.37H575.63V745.04z"/>
		<path class="st8" d="M851.8,746H721.15v-92.27H851.8V746z M722.09,745.04h128.75v-90.37H722.09V745.04z"/>
		<path class="st8" d="M1144.73,746h-130.64v-92.27h130.64V746z M1015.04,745.04h128.75v-90.37h-128.75V745.04z"/>
		<path class="st8" d="M998.26,746H867.62v-92.27h130.64V746z M868.57,745.04h128.75v-90.37H868.57V745.04z"/>
		<path class="st8" d="M265.91,854.21H135.27v-92.27h130.64V854.21z M136.22,853.25h128.75v-90.37H136.22V853.25z"/>
		<path class="st8" d="M412.38,854.21H281.74v-92.27h130.64V854.21z M282.68,853.25h128.75v-90.37H282.68V853.25z"/>
		<path class="st8" d="M558.85,854.21H428.2v-92.27h130.65V854.21z M429.15,853.25h128.75v-90.37H429.15V853.25z"/>
		<path class="st8" d="M705.32,854.21H574.68v-92.27h130.64V854.21z M575.63,853.25h128.75v-90.37H575.63V853.25z"/>
		<path class="st8" d="M851.8,854.21H721.15v-92.27H851.8V854.21z M722.09,853.25h128.75v-90.37H722.09V853.25z"/>
		<path class="st8" d="M1144.73,854.21h-130.64v-92.27h130.64V854.21z M1015.04,853.25h128.75v-90.37h-128.75V853.25z"/>
		<path class="st8" d="M998.26,854.21H867.62v-92.27h130.64V854.21z M868.57,853.25h128.75v-90.37H868.57V853.25z"/>
		<path class="st8" d="M265.91,962.41H135.27v-92.27h130.64V962.41z M136.22,961.45h128.75v-90.36H136.22V961.45z"/>
		<path class="st7" d="M412.38,962.41H281.74v-92.27h130.64V962.41z M282.68,961.45h128.75v-90.36H282.68V961.45z"/>
		<path class="st7" d="M558.85,962.41H428.2v-92.27h130.65V962.41z M429.15,961.45h128.75v-90.36H429.15V961.45z"/>
		<path class="st7" d="M705.32,962.41H574.68v-92.27h130.64V962.41z M575.63,961.45h128.75v-90.36H575.63V961.45z"/>
		<path class="st7" d="M851.8,962.41H721.15v-92.27H851.8V962.41z M722.09,961.45h128.75v-90.36H722.09V961.45z"/>
		<path class="st7" d="M1144.73,962.41h-130.65v-92.27h130.65V962.41z M1015.03,961.45h128.75v-90.36h-128.75V961.45z"/>
		<path class="st7" d="M998.27,962.41H867.62v-92.27h130.65V962.41z M868.57,961.45h128.75v-90.36H868.57V961.45z"/>
		<path class="st7" d="M265.91,1070.61H135.27v-92.27h130.64V1070.61z M136.22,1069.66h128.75v-90.37H136.22V1069.66z"/>
		<path class="st7" d="M412.38,1070.61H281.74v-92.27h130.64V1070.61z M282.68,1069.66h128.75v-90.37H282.68V1069.66z"/>
		<path class="st7" d="M558.85,1070.61H428.2v-92.27h130.65V1070.61z M429.15,1069.66h128.75v-90.37H429.15V1069.66z"/>
		<path class="st7" d="M705.32,1070.61H574.68v-92.27h130.64V1070.61z M575.63,1069.66h128.75v-90.37H575.63V1069.66z"/>
		<path class="st7" d="M851.8,1070.61H721.15v-92.27H851.8V1070.61z M722.09,1069.66h128.75v-90.37H722.09V1069.66z"/>
		<path class="st7" d="M1144.73,1070.61h-130.64v-92.27h130.64V1070.61z M1015.04,1069.66h128.75v-90.37h-128.75V1069.66z"/>
		<path class="st7" d="M998.26,1070.61H867.62v-92.27h130.64V1070.61z M868.57,1069.66h128.75v-90.37H868.57V1069.66z"/>
	</g>
	<g>
		<rect x="135.27" y="365.72" class="st0" width="1009.46" height="53.88"/>
		<g>
			<text transform="matrix(0.9932 0 0 1 191.4061 402.8389)" class="st9 st1 st10">S</text>
			<text transform="matrix(0.9932 0 0 1 333.4852 402.8389)" class="st9 st1 st10">M</text>
			<text transform="matrix(0.9932 0 0 1 484.8153 402.8389)" class="st9 st1 st10">T</text>
			<text transform="matrix(0.9932 0 0 1 624.5668 402.8389)" class="st9 st1 st10">W</text>
			<text transform="matrix(0.9932 0 0 1 777.7445 402.8389)" class="st9 st1 st10">T</text>
			<text transform="matrix(0.9932 0 0 1 924.933 402.8389)" class="st9 st1 st10">F</text>
			<text transform="matrix(0.9932 0 0 1 1070.2211 402.8389)" class="st9 st1 st10">S</text>
		</g>
	</g>
</g>
</svg>
