<svg id="Capa_1" enable-background="new 0 0 512 512" height="512" viewBox="0 0 512 512" width="512" xmlns="http://www.w3.org/2000/svg"><g><path d="m496.849 72.859h-74.627v-13.377c0-13.238-10.77-24.008-24.008-24.008s-24.008 10.77-24.008 24.008v13.377h-27.256c-4.14 0-7.495 3.356-7.495 7.495s3.356 7.495 7.495 7.495h27.256v9.96c0 13.238 10.77 24.007 24.008 24.007s24.008-10.77 24.008-24.007v-9.96h74.627c.088 0 .16.072.16.16v84.768h-482.018v-84.767c0-.088.072-.16.16-.16h74.627v9.96c0 13.238 10.77 24.007 24.008 24.007s24.008-10.77 24.008-24.007v-9.96h174.69c4.14 0 7.495-3.356 7.495-7.495s-3.356-7.495-7.495-7.495h-174.69v-13.378c0-13.238-10.77-24.008-24.008-24.008s-24.008 10.77-24.008 24.008v13.377h-74.627c-8.354 0-15.151 6.797-15.151 15.151v373.365c0 8.354 6.797 15.151 15.151 15.151h66.259c4.14 0 7.495-3.356 7.495-7.495s-3.356-7.495-7.495-7.495h-66.259c-.088 0-.16-.072-.16-.16v-273.607h482.018v273.606c0 .088-.072.16-.16.16h-380.326c-4.14 0-7.495 3.356-7.495 7.495s3.356 7.495 7.495 7.495h380.326c8.354 0 15.151-6.797 15.151-15.151v-373.364c0-8.354-6.797-15.151-15.151-15.151zm-89.618 24.951c0 4.972-4.045 9.016-9.017 9.016s-9.017-4.045-9.017-9.016v-38.328c0-4.972 4.045-9.017 9.017-9.017s9.017 4.045 9.017 9.017zm-302.462-38.328c0-4.972 4.045-9.017 9.017-9.017s9.017 4.045 9.017 9.017v38.328c0 4.972-4.045 9.016-9.017 9.016s-9.017-4.045-9.017-9.016z"/><g><path d="m395.081 293.832c-.026-.069-.053-.137-.081-.205-1.364-3.316-4.561-5.458-8.147-5.458-.002 0-.005 0-.007 0-3.589.003-6.786 2.151-8.146 5.472-.023.057-.046.114-.068.172l-21.77 57.16c-1.473 3.869.468 8.199 4.337 9.672 3.867 1.475 8.199-.469 9.672-4.337l3.583-9.408h24.631l3.542 9.386c1.133 3.001 3.985 4.851 7.014 4.851.879 0 1.774-.156 2.645-.484 3.873-1.462 5.828-5.786 4.367-9.659zm-14.917 38.077 6.663-17.493 6.602 17.493z"/><path d="m228.818 346.096c-3.901.022-8.803.042-12.764.047v-50.479c0-4.14-3.356-7.496-7.495-7.496s-7.495 3.356-7.495 7.496v57.927c0 3.651 2.631 6.771 6.23 7.388.541.093 14.963.145 21.609.108 4.14-.023 7.476-3.398 7.453-7.537s-3.444-7.467-7.538-7.454z"/><path d="m261.393 288.168c-4.14 0-7.495 3.356-7.495 7.496v57.976c0 4.14 3.356 7.495 7.495 7.495s7.495-3.356 7.495-7.495v-57.976c0-4.14-3.356-7.496-7.495-7.496z"/><path d="m85.517 288.168c-4.14 0-7.495 3.356-7.495 7.496v20.498h-25.13v-20.498c0-4.14-3.356-7.496-7.495-7.496s-7.495 3.356-7.495 7.496v57.976c0 4.14 3.356 7.495 7.495 7.495s7.495-3.356 7.495-7.495v-22.487h25.129v22.487c0 4.14 3.356 7.495 7.495 7.495s7.495-3.356 7.495-7.495v-57.976c.001-4.14-3.355-7.496-7.494-7.496z"/><path d="m314.333 289.883h-15.934c-1.99 0-3.899.792-5.305 2.2-1.406 1.409-2.194 3.319-2.191 5.309v.043.002 55.289c0 .488.05.965.14 1.427.125 1.81.894 3.521 2.189 4.806 1.404 1.394 3.303 2.176 5.281 2.176h.028c.482-.002 11.847-.045 16.389-.125 17.162-.3 29.619-15.23 29.619-35.501 0-21.309-12.143-35.626-30.216-35.626zm10.762 50.795c-2.66 3.472-6.168 5.269-10.427 5.344-2.004.035-5.472.063-8.685.084-.021-6.624-.048-15.937-.048-20.658 0-3.952-.015-13.679-.027-20.573h8.426c14.127 0 15.225 15.795 15.225 20.635-.001 6.025-1.586 11.412-4.464 15.168z"/><path d="m470.693 289.529c-3.47-2.258-8.112-1.278-10.371 2.193l-12.095 18.58-12.233-18.735c-2.264-3.467-6.909-4.441-10.374-2.178-3.466 2.263-4.441 6.908-2.178 10.374l17.294 26.485-.067 27.374c-.01 4.14 3.337 7.504 7.477 7.514h.019c4.131 0 7.485-3.344 7.495-7.477l.067-27.4 17.159-26.359c2.258-3.469 1.276-8.113-2.193-10.371z"/><path d="m147.038 288.168c-20.117 0-36.483 16.367-36.483 36.484s16.367 36.483 36.483 36.483c20.117 0 36.484-16.367 36.484-36.483-.001-20.117-16.367-36.484-36.484-36.484zm0 57.977c-11.851 0-21.492-9.642-21.492-21.492 0-11.851 9.642-21.493 21.492-21.493 11.851 0 21.493 9.642 21.493 21.493-.001 11.85-9.642 21.492-21.493 21.492z"/></g></g></svg>