<svg xmlns="http://www.w3.org/2000/svg" width="25" height="25" viewBox="0 0 25 25">
  <g id="administrator" transform="translate(-1 -1)">
    <path id="Path_271" data-name="Path 271" d="M26,8.574V5.523l-1.127-.277q-.074-.2-.168-.4l.6-.994L23.149,1.692l-.994.6q-.2-.093-.4-.168L21.477,1H18.426l-.277,1.127q-.2.074-.4.168l-.994-.6L14.6,3.851l.6.994q-.093.2-.168.4L13.9,5.523V8.258H3.016A2.018,2.018,0,0,0,1,10.274v9.677a2.018,2.018,0,0,0,2.016,2.016H6.242v1.613H4.629a.807.807,0,0,0-.806.806v.806A.807.807,0,0,0,4.629,26H26V24.387a6.459,6.459,0,0,0-4.657-6.192,3.218,3.218,0,0,0,.141-5.253l.041-.04.229-.932q.2-.074.4-.168l.994.6,2.158-2.158-.6-.994q.093-.2.168-.4Zm-22.984.49h13.71a1.211,1.211,0,0,1,1.21,1.21v2.452a3.245,3.245,0,0,0-.806.663V10.677a.807.807,0,0,0-.806-.806H3.419a.807.807,0,0,0-.806.806v8.065H1.806V10.274A1.211,1.211,0,0,1,3.016,9.065ZM17.129,7.048a2.839,2.839,0,1,1,1.462,2.467,2.024,2.024,0,0,0-1.106-1.106A2.817,2.817,0,0,1,17.129,7.048ZM21.51,22.762l-1.39,2.432h-.042l1.668-6.006c.172.073.34.155.5.244l-.256,1.535-.921.921Zm-2.535,2.432-1.39-2.432.437-.873-.921-.921-.256-1.535a5.571,5.571,0,0,1,.5-.244l1.668,6.005ZM14.71,18.742H13.9V12.29h.806Zm2.419-.331v-.768a3.22,3.22,0,0,0,.625.552A6.339,6.339,0,0,0,17.129,18.41Zm-.806.331h-.806V11.484H13.1v7.258H12.29V13.1H9.871v5.645H9.065V14.71H6.645v4.032H3.419V10.677h12.9Zm-4.839,0h-.806V13.9h.806Zm-3.226,0H7.452V15.516h.806Zm-6.452,1.21v-.4H15.3a6.489,6.489,0,0,0-1.326,1.613H3.016A1.211,1.211,0,0,1,1.806,19.952Zm5.242,2.016h6.523a6.384,6.384,0,0,0-.419,1.613h-6.1ZM4.629,25.194v-.806H13.1v.806Zm9.274,0v-.806A5.633,5.633,0,0,1,16.11,19.92l.239,1.435.692.692-.37.74,1.375,2.407H15.919V21.968h-.806v3.226H13.919Zm11.29-.806v.806h-1.21V21.968h-.806v3.226H21.05l1.375-2.407-.37-.74.692-.692.239-1.435a5.633,5.633,0,0,1,2.207,4.467Zm-4.213-5.454L19.548,24.09l-1.432-5.156a5.462,5.462,0,0,1,2.865,0Zm.987-3.417A2.419,2.419,0,1,1,19.548,13.1,2.422,2.422,0,0,1,21.968,15.516Zm2.322-5.393-1.263,1.263-.836-.506-.2.1a4.393,4.393,0,0,1-.7.291l-.216.068-.28,1.141-.043.042a3.163,3.163,0,0,0-2.013-.131V10.461a3.659,3.659,0,1,0-2.2-2.2H14.71v-2.1l.946-.233.068-.216a4.424,4.424,0,0,1,.291-.7l.1-.2-.506-.836L16.877,2.71l.836.506.2-.1a4.393,4.393,0,0,1,.7-.291l.216-.068.232-.946h1.787l.233.946.216.068a4.425,4.425,0,0,1,.7.291l.2.1.836-.506L24.29,3.974l-.506.836.1.2a4.393,4.393,0,0,1,.291.7l.068.216.946.232V7.942l-.946.233-.068.216a4.413,4.413,0,0,1-.291.7l-.1.2Z"/>
    <path id="Path_272" data-name="Path 272" d="M45.016,15.032A2.016,2.016,0,1,0,43,13.016,2.018,2.018,0,0,0,45.016,15.032Zm0-3.226a1.21,1.21,0,1,1-1.21,1.21A1.211,1.211,0,0,1,45.016,11.806Z" transform="translate(-25.065 -5.968)"/>
    <path id="Path_273" data-name="Path 273" d="M9,27h.806v.806H9Z" transform="translate(-4.774 -15.516)"/>
    <path id="Path_274" data-name="Path 274" d="M13,27h.806v.806H13Z" transform="translate(-7.161 -15.516)"/>
    <path id="Path_275" data-name="Path 275" d="M17,27h.806v.806H17Z" transform="translate(-9.548 -15.516)"/>
    <path id="Path_276" data-name="Path 276" d="M9,31h4.032v.806H9Z" transform="translate(-4.774 -17.903)"/>
  </g>
</svg>
