<svg xmlns="http://www.w3.org/2000/svg" width="25" height="25" viewBox="0 0 25 25">
  <g id="human-resources" transform="translate(-1 -1)">
    <path id="Path_277" data-name="Path 277" d="M49,49h4.032v.806H49Z" transform="translate(-28.645 -28.645)"/>
    <path id="Path_278" data-name="Path 278" d="M53,53h.806v.806H53Z" transform="translate(-31.032 -31.032)"/>
    <path id="Path_279" data-name="Path 279" d="M57,53h.806v.806H57Z" transform="translate(-33.419 -31.032)"/>
    <path id="Path_280" data-name="Path 280" d="M49,53h.806v.806H49Z" transform="translate(-28.645 -31.032)"/>
    <path id="Path_281" data-name="Path 281" d="M5,9H9.032v.806H5Z" transform="translate(-2.387 -4.774)"/>
    <path id="Path_282" data-name="Path 282" d="M13,13h.806v.806H13Z" transform="translate(-7.161 -7.161)"/>
    <path id="Path_283" data-name="Path 283" d="M5,13h.806v.806H5Z" transform="translate(-2.387 -7.161)"/>
    <path id="Path_284" data-name="Path 284" d="M9,13h.806v.806H9Z" transform="translate(-4.774 -7.161)"/>
    <path id="Path_285" data-name="Path 285" d="M20.355,15V12.29H24.79A1.211,1.211,0,0,0,26,11.081V2.21A1.211,1.211,0,0,0,24.79,1H14.306A1.211,1.211,0,0,0,13.1,2.21V5.032H8.258V2.613H1V8.258H8.258V5.839H13.1v.806H12l-.353,1.1a6.022,6.022,0,0,0-.9.371L9.717,7.589,7.59,9.716l.529,1.028a6.055,6.055,0,0,0-.371.9L6.645,12V14.71H2.21A1.211,1.211,0,0,0,1,15.919V24.79A1.211,1.211,0,0,0,2.21,26H12.694a1.211,1.211,0,0,0,1.21-1.21V21.968h4.839v2.419H26V18.742H18.742v2.419H13.9v-.806H15l.353-1.1a6.03,6.03,0,0,0,.9-.371l1.028.529,2.127-2.127-.529-1.028a6.055,6.055,0,0,0,.371-.9ZM7.452,7.452H1.806V3.419H7.452Zm12.1,12.1h5.645v4.032H19.548ZM17.129,13.5A3.633,3.633,0,0,1,13.9,17.105V15.919a1.211,1.211,0,0,0-1.21-1.21H10.081A3.62,3.62,0,0,1,13.1,9.895v1.186a1.211,1.211,0,0,0,1.21,1.21h2.612A3.609,3.609,0,0,1,17.129,13.5Zm-.371-2.016a2.826,2.826,0,0,1,1.581-2.143v.127a1.21,1.21,0,1,0,2.419,0V9.341a2.826,2.826,0,0,1,1.581,2.143Zm.774-6.208a1.455,1.455,0,0,1,1.454-1.454h.159v.96l-.944.472a1.2,1.2,0,0,0-.556.573A1.451,1.451,0,0,1,17.532,5.276ZM19.145,9.1a2.536,2.536,0,0,1,.806,0v.371a.4.4,0,1,1-.806,0Zm2.307-3.269a1.2,1.2,0,0,0-.556-.573l-.944-.472v-.96h.159a1.455,1.455,0,0,1,1.454,1.454,1.44,1.44,0,0,1-.113.552Zm-2.307,2.43a.807.807,0,0,1-.806-.806V6.337a.4.4,0,0,1,.223-.36l.987-.494.987.494a.4.4,0,0,1,.223.36V7.452a.807.807,0,0,1-.806.806ZM13.9,2.21a.4.4,0,0,1,.4-.4H24.79a.4.4,0,0,1,.4.4v8.871a.4.4,0,0,1-.4.4H23.154A3.634,3.634,0,0,0,21.079,8.6a1.606,1.606,0,0,0,.485-1.15V7.171l.427-.64a2.261,2.261,0,0,0-1.881-3.514H18.986A2.26,2.26,0,0,0,17.105,6.53l.427.641v.281a1.606,1.606,0,0,0,.485,1.15,3.634,3.634,0,0,0-2.074,2.882H14.306a.4.4,0,0,1-.4-.4ZM7.452,12.584l.95-.3.059-.208a5.246,5.246,0,0,1,.465-1.127l.106-.189L8.575,9.87l1.3-1.295.885.455.189-.106a5.2,5.2,0,0,1,1.128-.465l.208-.059.3-.95H13.1V9.085a4.421,4.421,0,0,0-3.86,5.625H7.452Zm-2.419,8.98V19.548a2.422,2.422,0,0,1,2.016-2.383v.924l-.944.472a1.2,1.2,0,0,0-.669,1.082v1.115a1.606,1.606,0,0,0,.485,1.15,3.621,3.621,0,0,0-.636.382A1.185,1.185,0,0,1,5.032,21.565Zm2.016,0a.807.807,0,0,1-.806-.806V19.644a.4.4,0,0,1,.223-.36l.987-.494.987.494a.4.4,0,0,1,.223.36v1.115a.807.807,0,0,1-.806.806Zm.4.806a2.806,2.806,0,0,1,.922.158l-.288.649H6.818l-.288-.649A2.806,2.806,0,0,1,7.452,22.371Zm.275,1.613-.275.62-.275-.62ZM9.091,22.9a2.819,2.819,0,0,1,1.183,2.293h-2.2Zm.78-1.336a1.183,1.183,0,0,1-.252.725,3.646,3.646,0,0,0-.636-.382,1.6,1.6,0,0,0,.485-1.15V19.644A1.2,1.2,0,0,0,8.8,18.562l-.944-.472v-.924a2.421,2.421,0,0,1,2.016,2.383ZM5.812,22.9l1.019,2.293h-2.2A2.819,2.819,0,0,1,5.812,22.9ZM13.1,24.79a.4.4,0,0,1-.4.4H11.081a3.609,3.609,0,0,0-.869-2.35,1.987,1.987,0,0,0,.466-1.279V19.548a3.226,3.226,0,1,0-6.452,0v2.016a1.987,1.987,0,0,0,.466,1.279,3.609,3.609,0,0,0-.869,2.35H2.21a.4.4,0,0,1-.4-.4V15.919a.4.4,0,0,1,.4-.4H12.694a.4.4,0,0,1,.4.4ZM18.6,14.72l-.059.208a5.246,5.246,0,0,1-.465,1.127l-.106.189.456.885-1.3,1.295-.885-.455-.189.106a5.186,5.186,0,0,1-1.128.465l-.208.059-.3.95H13.9V17.915a4.421,4.421,0,0,0,3.86-5.625h1.785v2.125Z"/>
    <path id="Path_286" data-name="Path 286" d="M5,39h.806v.806H5Z" transform="translate(-2.387 -22.677)"/>
    <path id="Path_287" data-name="Path 287" d="M27,39h.806v.806H27Z" transform="translate(-15.516 -22.677)"/>
    <path id="Path_288" data-name="Path 288" d="M35,5h.806v.806H35Z" transform="translate(-20.29 -2.387)"/>
    <path id="Path_289" data-name="Path 289" d="M57,5h.806v.806H57Z" transform="translate(-33.419 -2.387)"/>
  </g>
</svg>
