<svg id="Icon_feather-settings" data-name="Icon feather-settings" xmlns="http://www.w3.org/2000/svg" width="43" height="43" viewBox="0 0 43 43">
  <path id="Path_202" data-name="Path 202" d="M24.409,18.955A5.455,5.455,0,1,1,18.955,13.5,5.455,5.455,0,0,1,24.409,18.955Z" transform="translate(2.545 2.545)" fill="none" stroke="#000" stroke-linecap="round" stroke-linejoin="round" stroke-width="3"/>
  <path id="Path_203" data-name="Path 203" d="M34.955,26.955a3,3,0,0,0,.6,3.309l.109.109a3.638,3.638,0,1,1-5.145,5.145l-.109-.109a3.024,3.024,0,0,0-5.127,2.145v.309a3.636,3.636,0,1,1-7.273,0V37.7a3,3,0,0,0-1.964-2.745,3,3,0,0,0-3.309.6l-.109.109a3.638,3.638,0,1,1-5.145-5.145l.109-.109a3.024,3.024,0,0,0-2.145-5.127H5.136a3.636,3.636,0,0,1,0-7.273H5.3a3,3,0,0,0,2.745-1.964,3,3,0,0,0-.6-3.309l-.109-.109a3.638,3.638,0,1,1,5.145-5.145l.109.109a3,3,0,0,0,3.309.6h.145a3,3,0,0,0,1.818-2.745V5.136a3.636,3.636,0,0,1,7.273,0V5.3a3.024,3.024,0,0,0,5.127,2.145l.109-.109a3.638,3.638,0,1,1,5.145,5.145l-.109.109a3,3,0,0,0-.6,3.309v.145a3,3,0,0,0,2.745,1.818h.309a3.636,3.636,0,1,1,0,7.273H37.7a3,3,0,0,0-2.745,1.818Z" transform="translate(0 0)" fill="none" stroke="#000" stroke-linecap="round" stroke-linejoin="round" stroke-width="3"/>
</svg>
