<svg xmlns="http://www.w3.org/2000/svg" width="1072.045" height="597" viewBox="0 0 1072.045 597">
  <g id="LOGINsVG" transform="translate(0)">
    <path id="Path_1" data-name="Path 1" d="M1100.043,522.888a169.2,169.2,0,0,1-24.477,87.975c0,32.442-15.125,61.849-39.658,83.28a135.651,135.651,0,0,1-19.754,14.319c-.281.178-.572.347-.862.515-.525.309-1.05.618-1.584.937l-.5.291h0c-2.24,1.265-4.526,2.483-6.859,3.627a155.25,155.25,0,0,1-69.121,15.931H231.51q-8.434,0-16.718-.675a197.872,197.872,0,0,1-57.219-13.251q-5.36-2.118-10.514-4.554-2.455-1.153-4.864-2.371c-1-.506-2.005-1.031-3-1.556a178.485,178.485,0,0,1-17.486-10.627A172.294,172.294,0,0,1,106.9,685.371c-31.89-27.363-51.616-65.232-51.616-107.017A169.147,169.147,0,0,1,28,485.881c0-92.9,74.256-168.219,165.867-168.219,2.811,0,5.623.084,8.434.234a8.58,8.58,0,0,1,1.2.056c15.443-26.323,36.088-50.51,60.912-71.8,67.7-58.007,166.635-94.572,276.848-94.572,92.6,0,177.253,25.817,242.091,68.474a163.224,163.224,0,0,1,80.544-21.132c91.592,0,165.867,75.315,165.867,168.219a173.273,173.273,0,0,1-.937,17.6A168.678,168.678,0,0,1,1100.043,522.888Z" transform="translate(-28 -132.763)" opacity="0.1"/>
    <path id="Path_2" data-name="Path 2" d="M897.389,398.113V388.058a36.594,36.594,0,1,0-27.532,0v10.055a51.541,51.541,0,0,0-23.934,14.553,51.616,51.616,0,0,0-29.125-21.1V381.5a36.594,36.594,0,1,0-27.532,0v10.055a51.54,51.54,0,0,0-21.75,12.332,51.616,51.616,0,0,0-27.56-18.892V374.939a36.594,36.594,0,1,0-27.532,0v10.055a51.54,51.54,0,0,0-24.365,15.05,51.625,51.625,0,0,0-34.27-30.981V359.008a36.594,36.594,0,1,0-27.532,0v10.055a51.541,51.541,0,0,0-37.484,44.765,51.181,51.181,0,0,0-15.528-7.281V396.492a36.594,36.594,0,1,0-27.532,0v10.055a51.709,51.709,0,0,0-32.48,26.895,51.148,51.148,0,0,0-14.056-6.279V417.108a36.594,36.594,0,1,0-27.532,0v10.055a50.876,50.876,0,0,0-13.316,5.829,51.672,51.672,0,0,0-32.246-26.445V396.492a36.594,36.594,0,1,0-27.532,0v10.055a51.634,51.634,0,0,0-33.614,29.388,51.541,51.541,0,0,0-17.571-8.771V417.108a36.594,36.594,0,1,0-27.532,0v10.055A51.541,51.541,0,0,0,282.06,476.83v232.4H385.085V688.615h48.729v20.616H536.9V688.615h74.031V651.13h63.723v15.931h76.842v6.56h80.591v6.56H935.163V447.78a51.54,51.54,0,0,0-37.773-49.666Z" transform="translate(-43.98 -141.376)" opacity="0.1"/>
    <path id="Path_3" data-name="Path 3" d="M480.07,169h85.679A159.571,159.571,0,0,1,725.328,328.579v216.2H320.5V328.57A159.57,159.57,0,0,1,480.07,169Z" transform="translate(-20.159 -10.63)" fill="#2f2e41"/>
    <path id="Path_4" data-name="Path 4" d="M490.07,178.28h66.937A159.572,159.572,0,0,1,716.586,337.859v198.8H330.5V337.85A159.57,159.57,0,0,1,490.07,178.28Z" transform="translate(-20.788 -11.214)" opacity="0.2"/>
    <path id="Path_5" data-name="Path 5" d="M1012.623,729.241V745.6A155.246,155.246,0,0,1,943.5,761.534H237.8q-8.434,0-16.718-.675a197.868,197.868,0,0,1-57.219-13.251q-5.36-2.118-10.514-4.554-2.455-1.153-4.864-2.371c-1-.506-2.005-1.031-3-1.556A178.49,178.49,0,0,1,128,728.52V684.082A27.082,27.082,0,0,1,155.082,657H934.029a27.082,27.082,0,0,1,17.8,6.719l51.541,45.168A27.055,27.055,0,0,1,1012.623,729.241Z" transform="translate(-34.29 -164.553)" fill="#2f2e41"/>
    <path id="Path_6" data-name="Path 6" d="M496.2,356.761q-30.653,2.024-61.071,6.56c-5.763.862-11.611,1.818-16.868,4.367a49.481,49.481,0,0,0-11.189,8.021A147.481,147.481,0,0,0,371.464,424c-5.22,11.386-8.968,23.428-13.888,34.907C340.062,499.9,308.294,533.432,289.8,574c-4,8.781-7.375,17.945-8.715,27.495-1.387,9.877.187,21.4,8.3,27.176,3.748,2.652,8.3,3.748,12.763,4.685a1538.218,1538.218,0,0,0,170.149,27.785c-6.194-5.979-8.265-15.247-7.45-23.812s4.18-16.662,7.5-24.6q-48.551-10.711-96.859-22.49c-4.807-1.171-10.58-3.373-11.17-8.284-.3-2.5.937-4.91,2.155-7.113a381.561,381.561,0,0,1,49.1-69.345c0,26.3-1.3,55.992-1.3,82.3H717.994a232.4,232.4,0,0,1-6.41-45.777c-1.415-50.379,15.546-100.373,11.142-150.648-.412-4.639-1.05-9.418-3.477-13.391-4.189-6.86-12.548-9.7-20.232-12.042-29.463-8.959-59.543-18.021-90.337-17.318-9.155.216-18.273,1.284-27.373,2.361C553.58,354.249,524.061,354.915,496.2,356.761Z" transform="translate(-43.891 -145.154)"/>
    <path id="Path_7" data-name="Path 7" d="M358.873,679.139l22.116,70.779a2.211,2.211,0,0,0,2.108,1.546H478L455.507,669l-94.7,7.281a2.212,2.212,0,0,0-1.93,2.858Z" transform="translate(-48.805 -165.308)" fill="#656478"/>
    <path id="Path_8" data-name="Path 8" d="M527.484,387.343c-4.123,2.371-8.931,3.224-13.616,4.039l-30.24,5.248c-5.885,1.021-12.079,2.183-16.615,6.072-9.277,7.937-7.272,22.547-4.461,34.429l5.623,23.84c4.236,17.917,8.565,36.05,17.252,52.281,15.172,28.328,43,48.729,73.609,58.559,10.936,3.514,22.49,5.8,33.9,4.545,22.359-2.455,41.485-18.4,53.274-37.559s17.4-41.392,22.547-63.3c4.939-20.972,9.633-42.244,9.315-63.8-.094-6.71-.768-13.719-4.348-19.407-7.844-12.492-25.62-13.429-40.192-11.123-2.268.365-4.62.759-6.8.075-6.56-2.043-6.71-11.048-9.521-17.3-5.313-11.789-21.075-13.878-33.961-12.81s-32.948,2.446-44.175,9.746C528.281,367.861,540.144,380.043,527.484,387.343Z" transform="translate(-55.185 -145.299)" fill="#fbbebe"/>
    <path id="Path_9" data-name="Path 9" d="M527.484,387.343c-4.123,2.371-8.931,3.224-13.616,4.039l-30.24,5.248c-5.885,1.021-12.079,2.183-16.615,6.072-9.277,7.937-7.272,22.547-4.461,34.429l5.623,23.84c4.236,17.917,8.565,36.05,17.252,52.281,15.172,28.328,43,48.729,73.609,58.559,10.936,3.514,22.49,5.8,33.9,4.545,22.359-2.455,41.485-18.4,53.274-37.559s17.4-41.392,22.547-63.3c4.939-20.972,9.633-42.244,9.315-63.8-.094-6.71-.768-13.719-4.348-19.407-7.844-12.492-25.62-13.429-40.192-11.123-2.268.365-4.62.759-6.8.075-6.56-2.043-6.71-11.048-9.521-17.3-5.313-11.789-21.075-13.878-33.961-12.81s-32.948,2.446-44.175,9.746C528.281,367.861,540.144,380.043,527.484,387.343Z" transform="translate(-55.185 -145.299)" opacity="0.1"/>
    <path id="Path_10" data-name="Path 10" d="M501.371,416.57c4.573,9.6,8,19.773,13.532,28.853,4.395,7.216,10.027,13.579,15.631,19.9,14.516,16.418,29.219,32.967,47.183,45.468A208.908,208.908,0,0,1,629.6,408.652c7.74-8.312,17.43-16.5,28.788-16.193,7.047.2,13.55,3.692,19.417,7.581,6.56,4.339,12.763,9.371,17.477,15.621,7.45,9.952,10.664,22.556,11.245,34.973s-1.349,24.805-3.261,37.081l-9.84,63.451c-.572,3.673-1.368,7.731-4.367,9.933a13.746,13.746,0,0,1-5.623,2.024c-35.769,6.963-72.635,2.446-109.078,2.09-40.3-.384-81.706,4.207-119.874-8.612-2-.675-4.067-1.452-5.416-3.055a11.3,11.3,0,0,1-1.874-4.039c-8.893-28.788-1.762-59.721,3.514-89.381a701.3,701.3,0,0,0,8.912-71.013c.159-2.146,23.737,2.6,26.37,4.114C493.162,397.472,497.922,409.336,501.371,416.57Z" transform="translate(-54.102 -147.669)"/>
    <g id="Group_1" data-name="Group 1" transform="translate(101.177 250.906)" opacity="0.2">
      <path id="Path_11" data-name="Path 11" d="M193.63,667.387a11.159,11.159,0,0,1-.094,1.265q-5.36-2.118-10.514-4.554a8.526,8.526,0,0,1-4.864-2.371c-1-.506-2.005-1.031-3-1.556a12.823,12.823,0,0,1,.759-1.368c1.93-3.055,4.864-4.967,8.1-4.864s6.035,2.193,7.769,5.351a15.81,15.81,0,0,1,1.846,8.1Z" transform="translate(-138.434 -415.266)" fill="#3f3d56"/>
      <path id="Path_12" data-name="Path 12" d="M194.063,650.267a15.82,15.82,0,0,1-2.352,7.947c-1.93,3.045-4.864,4.957-8.1,4.854l-.665-.047a8.526,8.526,0,0,1-4.864-2.371,11.74,11.74,0,0,1-2.24-2.924,16.446,16.446,0,0,1,.506-16.043c1.93-3.055,4.864-4.967,8.1-4.864s6.035,2.193,7.769,5.351A15.809,15.809,0,0,1,194.063,650.267Z" transform="translate(-138.361 -414.19)" fill="#3f3d56"/>
      <ellipse id="Ellipse_1" data-name="Ellipse 1" cx="13.129" cy="10.027" rx="13.129" ry="10.027" transform="translate(35.75 232.55) rotate(-88.19)" fill="#3f3d56"/>
      <ellipse id="Ellipse_2" data-name="Ellipse 2" cx="13.129" cy="10.027" rx="13.129" ry="10.027" transform="translate(36.261 216.507) rotate(-88.19)" fill="#3f3d56"/>
      <ellipse id="Ellipse_3" data-name="Ellipse 3" cx="13.129" cy="10.027" rx="13.129" ry="10.027" transform="translate(36.763 200.463) rotate(-88.19)" fill="#3f3d56"/>
      <path id="Path_13" data-name="Path 13" d="M149.118,475.9a46.541,46.541,0,0,1-3.561-5.623l26.482-3.5-28.544-.675a48.148,48.148,0,0,1,.29-38.084l37.6,21.028-34.438-27.026a48.055,48.055,0,1,1,77.629,56.226,47.912,47.912,0,0,1,5.2,8.931l-34.738,16.718,36.856-11.086a48.111,48.111,0,0,1-9.184,44.887,48.055,48.055,0,1,1-75.465-2.408,48.055,48.055,0,0,1,1.874-59.393Z" transform="translate(-135.969 -399.247)"/>
      <path id="Path_14" data-name="Path 14" d="M233.925,515.568a47.848,47.848,0,0,1-11.245,29.378,48.055,48.055,0,1,1-75.437-2.38C141.03,534.188,234.094,510.179,233.925,515.568Z" transform="translate(-135.968 -406.514)" opacity="0.1"/>
    </g>
    <circle id="Ellipse_4" data-name="Ellipse 4" cx="20.269" cy="20.269" r="20.269" transform="translate(43.472 112.03)" opacity="0.1"/>
    <circle id="Ellipse_5" data-name="Ellipse 5" cx="20.269" cy="20.269" r="20.269" transform="translate(127.952 0)" opacity="0.1"/>
    <circle id="Ellipse_6" data-name="Ellipse 6" cx="33.97" cy="33.97" r="33.97" transform="translate(107.382 63.264)" opacity="0.1"/>
    <circle id="Ellipse_7" data-name="Ellipse 7" cx="78.716" cy="78.716" r="78.716" transform="translate(430.129 95.116)" fill="#fbbebe"/>
    <path id="Path_15" data-name="Path 15" d="M529.92,151.812c-21,2.661-43.669,6.176-58.513,21.263-8.3,8.434-13.166,19.679-17.168,30.812-6.2,17.336-10.823,35.61-9.371,54.005,1.293,16.455,7.384,33.286,2.455,49.048-2.268,7.253-6.719,13.588-10.177,20.344-6.41,12.548-9.427,26.614-10.533,40.661-.768,9.661-.619,19.6,2.558,28.76,3.383,9.746,9.98,18.039,14.16,27.466,6.185,13.925,6.8,29.594,7.281,44.822s.881,30.353,1.237,45.524c.225,9.54.244,19.754-5.032,27.71,19.482-7.806,39.236-15.771,55.907-28.516s30.165-31.121,32.321-52c1.743-16.924-3.973-33.6-8.9-49.891-12.182-40.3-20.054-83.252-11.189-124.4,3.2-14.816,10.964-31.355,25.873-34.082,9.1-1.659,18.18,2.493,26.379,6.785,19.379,10.139,39.358,23.259,46.574,43.9,6.56,18.667,1.04,39.461-7.5,57.285s-20.157,34.214-26.792,52.843c-10.186,28.582-7.319,62.045,9.605,87.225s48.2,40.67,78.267,36.6c-2.352-10.158-9.727-18.367-13.682-28.019-7.187-17.533-2.343-37.7,5.388-55s18.283-33.427,23.118-51.794c3.411-12.932,3.823-26.445,3.8-39.817,0-21.047-1.04-42.1-3.064-63.057s-5.117-42.17-11.789-62.327c-5.36-16.165-13.166-31.8-24.843-44.194-12.426-13.2-28.6-22.153-44.484-30.924-9.5-5.229-19.211-10.524-29.875-12.482-8.434-1.546-17.3-3.748-25.9-3.889C540.191,146.4,534.043,147.66,529.92,151.812Z" transform="translate(-53.048 -132.442)" fill="#fff"/>
    <rect id="Rectangle_11" data-name="Rectangle 11" width="57.023" height="132.825" rx="2.9" transform="matrix(0.982, 0.19, -0.19, 0.982, 571.714, 110.627)" fill="#656478"/>
    <rect id="Rectangle_12" data-name="Rectangle 12" width="57.023" height="132.825" rx="2.9" transform="matrix(0.982, 0.19, -0.19, 0.982, 575.542, 111.37)" fill="#3f3d56"/>
    <ellipse id="Ellipse_8" data-name="Ellipse 8" cx="9.418" cy="3.889" rx="9.418" ry="3.889" transform="matrix(0.19, -0.982, 0.982, 0.19, 592.384, 153.537)"/>
    <path id="Path_16" data-name="Path 16" d="M679.606,331.02c-2.474-4.376-5.117-8.9-9.287-11.7a32.8,32.8,0,0,0-7.665-3.439c-9.081-3.177-18.311-6.382-27.916-6.888-1.565-.075-3.355,0-4.376,1.2-2.1,2.465,1.227,5.819,4.1,7.309l22.884,11.854-21.094-2.23c-3.065-.328-7.431.506-7.206,3.58.15,2.015,2.362,3.111,4.273,3.748,13.541,4.685,29.191,8.359,36.6,20.616-9.877-.937-19.97-1.874-29.65.3-2.652.6-5.4,1.528-7.131,3.617s-1.931,5.623.253,7.281c1.349,1,3.167,1.031,4.854.937,6.869-.328,13.916-1.7,20.513.262s12.454,8.874,10.177,15.359c5.847.525,12.763,0,18.17-2.521,5.96-2.811,5.82-8.1,5.454-14.469C691.788,353.351,685.594,341.7,679.606,331.02Z" transform="translate(-65.805 -142.663)" fill="#fbbebe"/>
    <path id="Path_17" data-name="Path 17" d="M674.647,539.061A1054.452,1054.452,0,0,0,653.094,429.5c-4.686-18.742-10.008-37.8-8.668-57.088,19.361,2.465,36.706,4.292,54.549-3.617.29,10.13,7.638,18.742,10.308,28.535,1.79,6.56,1.115,13.5,1.818,20.26s2.811,13.307,4.62,19.876a243.863,243.863,0,0,1,6.213,100.026C705.375,539.455,691.169,541.62,674.647,539.061Z" transform="translate(-66.759 -146.425)" opacity="0.1"/>
    <path id="Path_18" data-name="Path 18" d="M671.647,539.061A1054.4,1054.4,0,0,0,650.094,429.5c-4.685-18.742-10.008-37.8-8.668-57.088,19.36,2.465,36.706,4.292,54.549-3.617.291,10.13,7.637,18.742,10.308,28.535,1.79,6.56,1.115,13.5,1.818,20.26s2.811,13.307,4.62,19.876a243.861,243.861,0,0,1,6.213,100.026C702.375,539.455,688.169,541.62,671.647,539.061Z" transform="translate(-66.571 -146.425)"/>
    <path id="Path_19" data-name="Path 19" d="M384.629,729.1,393.8,501.5A13.925,13.925,0,0,1,407.86,488.14l362.208,3.467A13.925,13.925,0,0,1,783.8,506.751L764.661,724.786a13.926,13.926,0,0,1-13.635,12.707l-352.237,6.091a13.935,13.935,0,0,1-14.16-14.488Z" transform="translate(-50.431 -153.932)" fill="#3f3d56"/>
    <ellipse id="Ellipse_9" data-name="Ellipse 9" cx="15.931" cy="18.742" rx="15.931" ry="18.742" transform="translate(520.56 418.884)" fill="#fff"/>
    <path id="Path_20" data-name="Path 20" d="M958.239,584.76l-.75,6.428L945.307,695.075c-31.758,22.144-56.46.862-56.676,0L873.281,590.7l-.871-5.941Z" transform="translate(-81.113 -160.01)" fill="#3f3d56"/>
    <path id="Path_21" data-name="Path 21" d="M958.239,584.76l-.75,6.428c-35.778,20.8-73.947,4.611-84.208-.487l-.871-5.941Z" transform="translate(-81.113 -160.01)" opacity="0.1"/>
    <path id="Path_22" data-name="Path 22" d="M870.5,578.74v9.371s47.324,27.513,89.962,0V578.74Z" transform="translate(-80.993 -159.631)"/>
    <path id="Path_23" data-name="Path 23" d="M876,565.53s-1.378,6.326-5.5,6.878v7.975h89.962v-7.15a6.649,6.649,0,0,1-4.686-7.7Z" transform="translate(-80.993 -158.8)"/>
    <ellipse id="Ellipse_10" data-name="Ellipse 10" cx="40.576" cy="11.695" rx="40.576" ry="11.695" transform="translate(793.64 395.719)"/>
    <ellipse id="Ellipse_11" data-name="Ellipse 11" cx="40.576" cy="11.695" rx="40.576" ry="11.695" transform="translate(793.64 395.719)" opacity="0.1"/>
    <path id="Path_24" data-name="Path 24" d="M951.6,564.957c0,4.685-15.387,8.528-34.382,8.528H916.21c-12.754-.094-23.774-1.874-29.4-4.536-2.539-1.2-3.983-2.558-3.983-3.992,0-2.38,3.936-4.536,10.308-6.082a106.345,106.345,0,0,1,24.112-2.446C936.217,556.429,951.6,560.243,951.6,564.957Z" transform="translate(-81.768 -158.227)" opacity="0.1"/>
    <path id="Path_25" data-name="Path 25" d="M916.477,573.647c-12.754-.094-23.774-1.874-29.4-4.535h0l6.3-10.111Z" transform="translate(-82.035 -158.389)" opacity="0.1"/>
    <path id="Path_26" data-name="Path 26" d="M880.017,566.228c-.487-.1-1.134.066-1.228.553a1.19,1.19,0,0,0,.187.7,10,10,0,0,0,4.479,3.833,2.667,2.667,0,0,0,1.021.328.937.937,0,0,0,.937-.487,1.059,1.059,0,0,0-.066-.871,3.872,3.872,0,0,0-1.162-1.275C882.932,568.027,881.648,566.5,880.017,566.228Z" transform="translate(-81.514 -158.842)" opacity="0.1"/>
    <circle id="Ellipse_12" data-name="Ellipse 12" cx="24.205" cy="24.205" r="24.205" transform="translate(811.379 459.142)" fill="#fff"/>
    <path id="Path_27" data-name="Path 27" d="M186.758,515.85h11.348a23.428,23.428,0,0,1,23.428,23.428v34.813h-58.2V539.278A23.428,23.428,0,0,1,186.758,515.85Z" transform="translate(-10.273 -32.446)" fill="#3f3d56"/>
    <path id="Path_28" data-name="Path 28" d="M186.758,515.85h11.348a23.428,23.428,0,0,1,23.428,23.428v34.813h-58.2V539.278A23.428,23.428,0,0,1,186.758,515.85Z" transform="translate(-10.273 -32.446)" opacity="0.1"/>
    <circle id="Ellipse_13" data-name="Ellipse 13" cx="4.657" cy="4.657" r="4.657" transform="translate(175.172 486.899)" fill="#3f3d56"/>
    <circle id="Ellipse_14" data-name="Ellipse 14" cx="4.657" cy="4.657" r="4.657" transform="translate(175.172 481.079)" fill="#3f3d56"/>
    <circle id="Ellipse_15" data-name="Ellipse 15" cx="4.657" cy="4.657" r="4.657" transform="translate(175.172 475.251)" fill="#3f3d56"/>
    <circle id="Ellipse_16" data-name="Ellipse 16" cx="4.657" cy="4.657" r="4.657" transform="translate(175.172 469.431)" fill="#3f3d56"/>
    <circle id="Ellipse_17" data-name="Ellipse 17" cx="4.657" cy="4.657" r="4.657" transform="translate(175.172 463.612)" fill="#3f3d56"/>
    <circle id="Ellipse_18" data-name="Ellipse 18" cx="4.657" cy="4.657" r="4.657" transform="translate(175.172 457.793)" fill="#3f3d56"/>
    <circle id="Ellipse_19" data-name="Ellipse 19" cx="4.657" cy="4.657" r="4.657" transform="translate(175.172 451.973)" fill="#3f3d56"/>
    <circle id="Ellipse_20" data-name="Ellipse 20" cx="4.657" cy="4.657" r="4.657" transform="translate(182.163 454.297)" fill="#3f3d56"/>
    <circle id="Ellipse_21" data-name="Ellipse 21" cx="4.657" cy="4.657" r="4.657" transform="translate(186.82 451.973)" fill="#3f3d56"/>
    <circle id="Ellipse_22" data-name="Ellipse 22" cx="4.657" cy="4.657" r="4.657" transform="translate(191.478 449.64)" fill="#3f3d56"/>
    <circle id="Ellipse_23" data-name="Ellipse 23" cx="4.657" cy="4.657" r="4.657" transform="translate(175.172 446.154)" fill="#3f3d56"/>
    <circle id="Ellipse_24" data-name="Ellipse 24" cx="4.657" cy="4.657" r="4.657" transform="translate(175.172 440.334)" fill="#3f3d56"/>
    <circle id="Ellipse_25" data-name="Ellipse 25" cx="4.657" cy="4.657" r="4.657" transform="translate(175.172 434.506)" fill="#3f3d56"/>
    <circle id="Ellipse_26" data-name="Ellipse 26" cx="4.657" cy="4.657" r="4.657" transform="translate(175.172 428.686)" fill="#3f3d56"/>
    <path id="Path_29" data-name="Path 29" d="M237.876,576.806c-1.153.169-2.315.291-3.477.365a26.751,26.751,0,0,0,3.008-3.092,19.887,19.887,0,0,0-2.811-5.463,9.58,9.58,0,0,1-3.748,1.181c-1.153.169-2.315.29-3.477.375a58.06,58.06,0,0,0,4.451-4.686,19.763,19.763,0,1,0,6.194,11.245Z" transform="translate(-38.742 -158.475)"/>
    <path id="Path_30" data-name="Path 30" d="M255.865,602.447a9.075,9.075,0,0,1-3.917,1.3c-1.153.169-2.315.3-3.477.375a34.1,34.1,0,0,0,3.449-3.58,11.658,11.658,0,1,0,3.945,1.874Z" transform="translate(-41.166 -160.979)"/>
    <circle id="Ellipse_27" data-name="Ellipse 27" cx="4.657" cy="4.657" r="4.657" transform="translate(168.191 454.297)" fill="#3f3d56"/>
    <circle id="Ellipse_28" data-name="Ellipse 28" cx="4.657" cy="4.657" r="4.657" transform="translate(163.533 451.973)" fill="#3f3d56"/>
    <circle id="Ellipse_29" data-name="Ellipse 29" cx="4.657" cy="4.657" r="4.657" transform="translate(158.876 449.64)" fill="#3f3d56"/>
    <path id="Path_31" data-name="Path 31" d="M182.38,602.447a9.031,9.031,0,0,0,3.917,1.3c1.153.169,2.315.3,3.477.375a33.187,33.187,0,0,1-3.449-3.58,11.657,11.657,0,1,1-3.945,1.874Z" transform="translate(-37.41 -160.979)"/>
    <path id="Path_32" data-name="Path 32" d="M186.758,519.58h11.348a23.427,23.427,0,0,1,23.428,23.427v30.8a3.973,3.973,0,0,1-3.973,3.973H167.3a3.973,3.973,0,0,1-3.973-3.973v-30.8a23.428,23.428,0,0,1,23.428-23.428Z" transform="translate(-10.273 -32.681)" fill="#3f3d56"/>
    <g id="Group_2" data-name="Group 2" transform="translate(160.319 402.171)" opacity="0.1">
      <path id="Path_33" data-name="Path 33" d="M240.779,579.27a17.621,17.621,0,0,1-1.5,1.424,15.152,15.152,0,0,0,1.593-.14A8.365,8.365,0,0,0,240.779,579.27Z" transform="translate(-201.608 -561.835)"/>
      <path id="Path_34" data-name="Path 34" d="M231.82,573.07c1.171-.075,2.324-.2,3.486-.366a11.237,11.237,0,0,0,3.027-.824,19.933,19.933,0,0,0-1.631-2.689,7.05,7.05,0,0,1-1.874.8,26.966,26.966,0,0,1-3.008,3.083Z" transform="translate(-201.139 -561.201)"/>
      <path id="Path_35" data-name="Path 35" d="M201.132,582.532a19.754,19.754,0,0,1,30.456-16.643l.3-.319a19.773,19.773,0,1,0-26.07,29.735A19.679,19.679,0,0,1,201.132,582.532Z" transform="translate(-199.08 -560.665)"/>
    </g>
    <g id="Group_3" data-name="Group 3" transform="translate(196.135 439.172)" opacity="0.1">
      <path id="Path_36" data-name="Path 36" d="M249.22,606.6c1.162-.075,2.324-.2,3.477-.365a9.092,9.092,0,0,0,3.917-1.312,11.648,11.648,0,0,1,4.686,8.246,10.674,10.674,0,0,0,.066-1.227,11.6,11.6,0,0,0-4.685-9.371,9.072,9.072,0,0,1-3.917,1.3l-.937.122A23.767,23.767,0,0,1,249.22,606.6Z" transform="translate(-238.05 -600.302)"/>
      <path id="Path_37" data-name="Path 37" d="M248.939,602.474a9.6,9.6,0,0,1,1.162.084c.609-.647,1.209-1.34,1.818-2.015A11.62,11.62,0,0,0,237.3,611.789a7.983,7.983,0,0,0,.056,1.162A11.639,11.639,0,0,1,248.939,602.474Z" transform="translate(-237.3 -600.15)"/>
    </g>
    <g id="Group_4" data-name="Group 4" transform="translate(140.218 439.172)" opacity="0.1">
      <path id="Path_38" data-name="Path 38" d="M189.775,606.6c-1.162-.075-2.324-.2-3.477-.365a9.043,9.043,0,0,1-3.917-1.312,11.648,11.648,0,0,0-4.686,8.246,10.663,10.663,0,0,1-.066-1.227,11.6,11.6,0,0,1,4.686-9.371,9.034,9.034,0,0,0,3.917,1.3l.937.122a22.184,22.184,0,0,0,2.605,2.605Z" transform="translate(-177.63 -600.302)"/>
      <path id="Path_39" data-name="Path 39" d="M189.89,602.474a9.753,9.753,0,0,0-1.171.084c-.6-.647-1.2-1.34-1.809-2.015a11.62,11.62,0,0,1,14.619,11.245,7.983,7.983,0,0,1-.056,1.162A11.639,11.639,0,0,0,189.89,602.474Z" transform="translate(-178.214 -600.15)"/>
    </g>
  </g>
</svg>
